<svg version="1.1" xmlns="http://www.w3.org/2000/svg" xmlns:xlink="http://www.w3.org/1999/xlink" width="53" height="53"><defs/><g><path fill="rgb(206,206,206)" stroke="none" paint-order="stroke fill markers" fill-rule="evenodd" d=" M 11.999923706054688 3.026829481124878 C 11.999923706054688 3.026829481124878 11.999923706054688 42.05210518836975 11.999923706054688 42.05210518836975 C 11.999923706054688 42.05210518836975 10.99993896484375 43.07929825782776 10.99993896484375 43.07929825782776 C 9.518386840820312 43.07929825782776 8.108932495117188 42.88929057121277 6.579200744628906 43.10923886299133 C 5.172950744628906 43.311050057411194 4.009315490722656 44.648876905441284 3.9999313354492188 46.166635274887085 C 3.9999313354492188 46.166635274887085 1.9999618530273438 46.16030168533325 1.9999618530273438 46.16030168533325 C 1.9999618530273438 46.16030168533325 1.9999618530273438 7.131283402442932 1.9999618530273438 7.131283402442932 C 2.0023651123046875 6.743782877922058 2.0166702270507812 6.650794267654419 2.048370361328125 6.4181787967681885 C 2.3759002685546875 4.0134299993515015 4.542610168457031 2.0157582759857178 6.996795654296875 1.9999243021011353 C 6.996795654296875 1.9999243021011353 10.99993896484375 1.9999243021011353 10.99993896484375 1.9999243021011353 C 11.333305358886719 2.342226028442383 11.666671752929688 2.6845277547836304 11.999923706054688 3.026829481124878 Z M 7.003089904785156 4.053734660148621 C 5.423576354980469 4.0640987157821655 4.010459899902344 5.445109128952026 3.9999313354492188 7.138192772865295 C 3.9999313354492188 7.138192772865295 3.9999313354492188 42.051817297935486 3.9999313354492188 42.051817297935486 C 4.139892578125 41.942994713783264 4.097206115722656 41.97869312763214 4.154083251953125 41.93752479553223 C 4.9883575439453125 41.35137987136841 5.989601135253906 41.031821489334106 6.996795654296875 41.02491211891174 C 6.996795654296875 41.02491211891174 9.999954223632812 41.02491211891174 9.999954223632812 41.02491211891174 C 9.999954223632812 41.02491211891174 9.999954223632812 4.053734660148621 9.999954223632812 4.053734660148621 C 9.000999450683594 4.053734660148621 8.002044677734375 4.053734660148621 7.003089904785156 4.053734660148621 Z M 11.166679382324219 43.166529059410095 C 9.7557373046875 43.166529059410095 8.388168334960938 43.12478494644165 6.9732208251953125 43.168832182884216 C 5.030242919921875 43.252896189689636 3.4915847778320312 45.448060750961304 4.262001037597656 47.30034780502319 C 4.717475891113281 48.39519512653351 5.864631652832031 49.15868055820465 7.0954437255859375 49.16645359992981 C 7.0954437255859375 49.16645359992981 11.166679382324219 49.16645359992981 11.166679382324219 49.16645359992981 C 11.166679382324219 49.16645359992981 11.166679382324219 51.166428446769714 11.166679382324219 51.166428446769714 C 11.166679382324219 51.166428446769714 7.088920593261719 51.166428446769714 7.088920593261719 51.166428446769714 C 4.505760192871094 51.15059447288513 2.1382064819335938 48.980188488960266 2.00579833984375 46.42314565181732 C 1.8673248291015625 43.74835562705994 4.193336486816406 41.18440341949463 7.088920593261719 41.16655421257019 C 7.088920593261719 41.16655421257019 11.166679382324219 41.16655421257019 11.166679382324219 41.16655421257019 C 11.166679382324219 41.83330845832825 11.166679382324219 42.49977481365204 11.166679382324219 43.166529059410095 Z M 51.99988555908203 10.516011238098145 C 51.99988555908203 10.516011238098145 51.99988555908203 50.15017521381378 51.99988555908203 50.15017521381378 C 51.99988555908203 50.15017521381378 50.952980041503906 51.166428446769714 50.952980041503906 51.166428446769714 C 50.952980041503906 51.166428446769714 11.166679382324219 51.166428446769714 11.166679382324219 51.166428446769714 C 11.166679382324219 51.166428446769714 11.166679382324219 49.13392198085785 11.166679382324219 49.13392198085785 C 11.166679382324219 49.13392198085785 49.90596008300781 49.13392198085785 49.90596008300781 49.13392198085785 C 49.90596008300781 49.13392198085785 49.90596008300781 11.532264471054077 49.90596008300781 11.532264471054077 C 49.90596008300781 11.532264471054077 11.166679382324219 11.532264471054077 11.166679382324219 11.532264471054077 C 11.166679382324219 11.532264471054077 11.166679382324219 9.499758005142212 11.166679382324219 9.499758005142212 C 11.166679382324219 9.499758005142212 50.952980041503906 9.499758005142212 50.952980041503906 9.499758005142212 C 51.301910400390625 9.838605046272278 51.65095520019531 10.177452087402344 51.99988555908203 10.516011238098145 Z M 39.99995422363281 25.671715259552002 C 39.99995422363281 25.671715259552002 46.166603088378906 25.671715259552002 46.166603088378906 25.671715259552002 C 46.166603088378906 25.671715259552002 46.166603088378906 41.921690821647644 46.166603088378906 41.921690821647644 C 46.166603088378906 41.921690821647644 34.86109924316406 41.921690821647644 34.86109924316406 41.921690821647644 C 34.86109924316406 41.921690821647644 34.86109924316406 46.99979019165039 34.86109924316406 46.99979019165039 C 34.86109924316406 46.99979019165039 15.333244323730469 46.99979019165039 15.333244323730469 46.99979019165039 C 15.333244323730469 46.99979019165039 15.333244323730469 30.74981462955475 15.333244323730469 30.74981462955475 C 15.333244323730469 30.74981462955475 23.55559539794922 30.74981462955475 23.55559539794922 30.74981462955475 C 23.55559539794922 30.74981462955475 23.55559539794922 22.62497079372406 23.55559539794922 22.62497079372406 C 23.55559539794922 22.62497079372406 15.333244323730469 22.62497079372406 15.333244323730469 22.62497079372406 C 15.333244323730469 22.62497079372406 15.333244323730469 14.499839067459106 15.333244323730469 14.499839067459106 C 15.333244323730469 14.499839067459106 39.99995422363281 14.499839067459106 39.99995422363281 14.499839067459106 C 39.99995422363281 18.22370183467865 39.99995422363281 21.94785249233246 39.99995422363281 25.671715259552002 Z M 17.388832092285156 16.53119397163391 C 17.388832092285156 16.53119397163391 17.388832092285156 20.593615889549255 17.388832092285156 20.593615889549255 C 17.388832092285156 20.593615889549255 25.611068725585938 20.593615889549255 25.611068725585938 20.593615889549255 C 25.611068725585938 20.593615889549255 25.611068725585938 32.78116953372955 25.611068725585938 32.78116953372955 C 25.611068725585938 32.78116953372955 17.388832092285156 32.78116953372955 17.388832092285156 32.78116953372955 C 17.388832092285156 32.78116953372955 17.388832092285156 44.96872317790985 17.388832092285156 44.96872317790985 C 17.388832092285156 44.96872317790985 32.805511474609375 44.96872317790985 32.805511474609375 44.96872317790985 C 32.805511474609375 44.96872317790985 32.805511474609375 39.890623807907104 32.805511474609375 39.890623807907104 C 32.805511474609375 39.890623807907104 44.11101531982422 39.890623807907104 44.11101531982422 39.890623807907104 C 44.11101531982422 39.890623807907104 44.11101531982422 27.703070163726807 44.11101531982422 27.703070163726807 C 44.11101531982422 27.703070163726807 37.944366455078125 27.703070163726807 37.944366455078125 27.703070163726807 C 37.944366455078125 27.703070163726807 37.944366455078125 16.53119397163391 37.944366455078125 16.53119397163391 C 31.092559814453125 16.53119397163391 24.240638732910156 16.53119397163391 17.388832092285156 16.53119397163391 Z M 34.500038146972656 40.33311140537262 C 34.500038146972656 40.33311140537262 32.49995422363281 40.33311140537262 32.49995422363281 40.33311140537262 C 32.49995422363281 40.33311140537262 32.49995422363281 38.333136558532715 32.49995422363281 38.333136558532715 C 32.49995422363281 38.333136558532715 34.500038146972656 38.333136558532715 34.500038146972656 38.333136558532715 C 34.500038146972656 38.99989080429077 34.500038146972656 39.66635715961456 34.500038146972656 40.33311140537262 Z M 34.500038146972656 36.33316171169281 C 34.500038146972656 36.33316171169281 32.49995422363281 36.33316171169281 32.49995422363281 36.33316171169281 C 32.49995422363281 36.33316171169281 32.49995422363281 34.333186864852905 32.49995422363281 34.333186864852905 C 32.49995422363281 34.333186864852905 34.500038146972656 34.333186864852905 34.500038146972656 34.333186864852905 C 34.500038146972656 34.99994111061096 34.500038146972656 35.66669535636902 34.500038146972656 36.33316171169281 Z M 32.49995422363281 30.333237171173096 C 32.49995422363281 30.333237171173096 34.500038146972656 30.333237171173096 34.500038146972656 30.333237171173096 C 34.500038146972656 30.333237171173096 34.500038146972656 32.333212018013 34.500038146972656 32.333212018013 C 34.500038146972656 32.333212018013 32.49995422363281 32.333212018013 32.49995422363281 32.333212018013 C 32.49995422363281 31.666457772254944 32.49995422363281 30.999703526496887 32.49995422363281 30.333237171173096 Z M 26.49993133544922 32.333212018013 C 26.49993133544922 32.333212018013 24.499961853027344 32.333212018013 24.499961853027344 32.333212018013 C 24.499961853027344 32.333212018013 24.499961853027344 30.333237171173096 24.499961853027344 30.333237171173096 C 24.499961853027344 30.333237171173096 26.49993133544922 30.333237171173096 26.49993133544922 30.333237171173096 C 26.49993133544922 30.999703526496887 26.49993133544922 31.666457772254944 26.49993133544922 32.333212018013 Z M 30.49987030029297 32.333212018013 C 30.49987030029297 32.333212018013 28.500015258789062 32.333212018013 28.500015258789062 32.333212018013 C 28.500015258789062 32.333212018013 28.500015258789062 30.333237171173096 28.500015258789062 30.333237171173096 C 28.500015258789062 30.333237171173096 30.49987030029297 30.333237171173096 30.49987030029297 30.333237171173096 C 30.49987030029297 30.999703526496887 30.49987030029297 31.666457772254944 30.49987030029297 32.333212018013 Z M 24.499961853027344 22.833115577697754 C 24.499961853027344 22.833115577697754 34.49992370605469 22.833115577697754 34.49992370605469 22.833115577697754 C 34.49992370605469 22.833115577697754 34.49992370605469 20.333362936973572 34.49992370605469 20.333362936973572 C 34.49992370605469 20.333362936973572 24.499961853027344 20.333362936973572 24.499961853027344 20.333362936973572 C 24.499961853027344 20.333362936973572 24.499961853027344 22.833115577697754 24.499961853027344 22.833115577697754 Z M 37.83324432373047 33.666720509529114 C 37.83324432373047 33.666720509529114 40.33320617675781 33.666720509529114 40.33320617675781 33.666720509529114 C 40.33320617675781 33.666720509529114 40.33320617675781 27.000041723251343 40.33320617675781 27.000041723251343 C 40.33320617675781 27.000041723251343 37.83324432373047 27.000041723251343 37.83324432373047 27.000041723251343 C 37.83324432373047 27.000041723251343 37.83324432373047 33.666720509529114 37.83324432373047 33.666720509529114 Z"/></g></svg>