<svg version="1.1" xmlns="http://www.w3.org/2000/svg" xmlns:xlink="http://www.w3.org/1999/xlink" width="53" height="54"><defs/><g><path fill="rgb(206,206,206)" stroke="none" paint-order="stroke fill markers" fill-rule="evenodd" d=" M 51.99988555908203 3.0414057970046997 C 51.99988555908203 3.0414057970046997 51.99988555908203 34.291624546051025 51.99988555908203 34.291624546051025 C 51.99988555908203 34.291624546051025 50.95835876464844 35.33321213722229 50.95835876464844 35.33321213722229 C 50.95835876464844 35.33321213722229 37.41667938232422 35.33321213722229 37.41667938232422 35.33321213722229 C 37.41667938232422 35.33321213722229 37.41667938232422 50.95817756652832 37.41667938232422 50.95817756652832 C 37.41667938232422 50.95817756652832 36.37492370605469 52.00005304813385 36.37492370605469 52.00005304813385 C 36.37492370605469 52.00005304813385 3.0416030883789062 52.00005304813385 3.0416030883789062 52.00005304813385 C 3.0416030883789062 52.00005304813385 1.9999618530273438 50.95817756652832 1.9999618530273438 50.95817756652832 C 1.9999618530273438 50.95817756652832 1.9999618530273438 17.62507152557373 1.9999618530273438 17.62507152557373 C 1.9999618530273438 17.62507152557373 3.0416030883789062 16.5831960439682 3.0416030883789062 16.5831960439682 C 3.0416030883789062 16.5831960439682 18.66667938232422 16.5831960439682 18.66667938232422 16.5831960439682 C 18.66667938232422 16.5831960439682 18.66667938232422 3.0414057970046997 18.66667938232422 3.0414057970046997 C 18.66667938232422 3.0414057970046997 19.70832061767578 1.999818205833435 19.70832061767578 1.999818205833435 C 19.70832061767578 1.999818205833435 50.95835876464844 1.999818205833435 50.95835876464844 1.999818205833435 C 51.305458068847656 2.34701406955719 51.65278625488281 2.694209933280945 51.99988555908203 3.0414057970046997 Z M 20.749961853027344 4.0832812786102295 C 20.749961853027344 4.0832812786102295 20.749961853027344 17.62507152557373 20.749961853027344 17.62507152557373 C 20.749961853027344 17.62507152557373 19.70832061767578 18.66637122631073 19.70832061767578 18.66637122631073 C 19.70832061767578 18.66637122631073 4.0833587646484375 18.66637122631073 4.0833587646484375 18.66637122631073 C 4.0833587646484375 18.66637122631073 4.0833587646484375 49.916589975357056 4.0833587646484375 49.916589975357056 C 4.0833587646484375 49.916589975357056 35.333282470703125 49.916589975357056 35.333282470703125 49.916589975357056 C 35.333282470703125 49.916589975357056 35.333282470703125 34.291624546051025 35.333282470703125 34.291624546051025 C 35.333282470703125 34.291624546051025 36.37492370605469 33.249749064445496 36.37492370605469 33.249749064445496 C 36.37492370605469 33.249749064445496 49.916603088378906 33.249749064445496 49.916603088378906 33.249749064445496 C 49.916603088378906 33.249749064445496 49.916603088378906 4.0832812786102295 49.916603088378906 4.0832812786102295 C 40.19438934326172 4.0832812786102295 30.47217559814453 4.0832812786102295 20.749961853027344 4.0832812786102295 Z M 19.499923706054688 18.49997055530548 C 19.499923706054688 18.49997055530548 22 18.49997055530548 22 18.49997055530548 C 22 18.49997055530548 22 15.999930024147034 22 15.999930024147034 C 22 15.999930024147034 19.499923706054688 15.999930024147034 19.499923706054688 15.999930024147034 C 19.499923706054688 15.999930024147034 19.499923706054688 18.49997055530548 19.499923706054688 18.49997055530548 Z M 26.00005340576172 18.49997055530548 C 26.00005340576172 18.49997055530548 29.5 18.49997055530548 29.5 18.49997055530548 C 29.5 18.49997055530548 29.5 15.999930024147034 29.5 15.999930024147034 C 29.5 15.999930024147034 26.00005340576172 15.999930024147034 26.00005340576172 15.999930024147034 C 26.00005340576172 15.999930024147034 26.00005340576172 18.49997055530548 26.00005340576172 18.49997055530548 Z M 37.49999237060547 16.999773502349854 C 37.49999237060547 16.999773502349854 37.49999237060547 19.999879717826843 37.49999237060547 19.999879717826843 C 37.49999237060547 19.999879717826843 35.499908447265625 19.999879717826843 35.499908447265625 19.999879717826843 C 35.499908447265625 19.999879717826843 35.499908447265625 17.99990487098694 35.499908447265625 17.99990487098694 C 35.499908447265625 17.99990487098694 33.49993896484375 17.99990487098694 33.49993896484375 17.99990487098694 C 33.49993896484375 17.99990487098694 33.49993896484375 15.999930024147034 33.49993896484375 15.999930024147034 C 33.49993896484375 15.999930024147034 36.50000762939453 15.999930024147034 36.50000762939453 15.999930024147034 C 36.83325958251953 16.333019256591797 37.1666259765625 16.66668426990509 37.49999237060547 16.999773502349854 Z M 35.499908447265625 27.999779105186462 C 35.499908447265625 27.999779105186462 37.99998474121094 27.999779105186462 37.99998474121094 27.999779105186462 C 37.99998474121094 27.999779105186462 37.99998474121094 24.499895095825195 37.99998474121094 24.499895095825195 C 37.99998474121094 24.499895095825195 35.499908447265625 24.499895095825195 35.499908447265625 24.499895095825195 C 35.499908447265625 24.499895095825195 35.499908447265625 27.999779105186462 35.499908447265625 27.999779105186462 Z M 35.499908447265625 34.49976933002472 C 35.499908447265625 34.49976933002472 37.99998474121094 34.49976933002472 37.99998474121094 34.49976933002472 C 37.99998474121094 34.49976933002472 37.99998474121094 32.00001668930054 37.99998474121094 32.00001668930054 C 37.99998474121094 32.00001668930054 35.499908447265625 32.00001668930054 35.499908447265625 32.00001668930054 C 35.499908447265625 32.00001668930054 35.499908447265625 34.49976933002472 35.499908447265625 34.49976933002472 Z M 14.804756164550781 33.50395631790161 C 17.01209259033203 33.54541254043579 18.98528289794922 35.4380042552948 18.99993133544922 37.680670738220215 C 18.99993133544922 37.680670738220215 18.99993133544922 44.999709248542786 18.99993133544922 44.999709248542786 C 18.99993133544922 44.999709248542786 16.87499237060547 44.999709248542786 16.87499237060547 44.999709248542786 C 16.87499237060547 42.55206477642059 16.890785217285156 40.1044203042984 16.87476348876953 37.65677583217621 C 16.85382080078125 36.57286834716797 15.902359008789062 35.60123813152313 14.746505737304688 35.594040870666504 C 14.746505737304688 35.594040870666504 12.625 35.594040870666504 12.625 35.594040870666504 C 12.625 35.594040870666504 12.625 44.999709248542786 12.625 44.999709248542786 C 12.625 44.999709248542786 10.499946594238281 44.999709248542786 10.499946594238281 44.999709248542786 C 10.499946594238281 44.999709248542786 10.499946594238281 33.503668427467346 10.499946594238281 33.503668427467346 C 11.934806823730469 33.503668427467346 13.369781494140625 33.49503171443939 14.804756164550781 33.50395631790161 Z M 20.304672241210938 33.4999258518219 C 22.512123107910156 33.541094183921814 24.485313415527344 35.43454957008362 24.499961853027344 37.67807972431183 C 24.499961853027344 37.67807972431183 24.499961853027344 44.999709248542786 24.499961853027344 44.999709248542786 C 24.499961853027344 44.999709248542786 22.375022888183594 44.999709248542786 22.375022888183594 44.999709248542786 C 22.375022888183594 42.5512011051178 22.39081573486328 40.10269296169281 22.374679565429688 37.65418481826782 C 22.34423828125 36.07337844371796 20.08826446533203 34.943984270095825 18.783981323242188 36.16780650615692 C 18.368675231933594 36.55732226371765 18.128692626953125 37.111223459243774 18.124916076660156 37.68470120429993 C 18.124916076660156 37.68470120429993 18.124916076660156 44.999709248542786 18.124916076660156 44.999709248542786 C 18.124916076660156 44.999709248542786 15.999977111816406 44.999709248542786 15.999977111816406 44.999709248542786 C 15.999977111816406 44.999709248542786 15.999977111816406 37.67807972431183 15.999977111816406 37.67807972431183 C 16.014053344726562 35.52581083774567 17.88848114013672 33.57103478908539 20.140792846679688 33.50107741355896 C 20.19549560546875 33.4999258518219 20.250083923339844 33.499637961387634 20.304672241210938 33.4999258518219 Z M 10.499946594238281 35.99967849254608 C 10.499946594238281 35.99967849254608 13.000022888183594 35.99967849254608 13.000022888183594 35.99967849254608 C 13.000022888183594 35.99967849254608 13.000022888183594 32.00001668930054 13.000022888183594 32.00001668930054 C 13.000022888183594 32.00001668930054 10.499946594238281 32.00001668930054 10.499946594238281 32.00001668930054 C 10.499946594238281 32.00001668930054 10.499946594238281 35.99967849254608 10.499946594238281 35.99967849254608 Z M 26.10888671875 22.003597140312195 C 28.129798889160156 22.04303812980652 29.566490173339844 25.242652416229248 27.19927978515625 26.483172297477722 C 26.13280487060547 27.01893639564514 24.95074462890625 27.360374450683594 24.42706298828125 28.36568784713745 C 24.42706298828125 28.36568784713745 28.500015258789062 28.37576401233673 28.500015258789062 28.37576401233673 C 28.500015258789062 28.37576401233673 28.500015258789062 30.49981963634491 28.500015258789062 30.49981963634491 C 28.500015258789062 30.49981963634491 23.083297729492188 30.49981963634491 23.083297729492188 30.49981963634491 C 23.083297729492188 30.49981963634491 22 29.432897686958313 22 29.432897686958313 C 22.007667541503906 27.7979679107666 22.973663330078125 26.220040440559387 24.464942932128906 25.44906985759735 C 25.035316467285156 25.16089153289795 25.61255645751953 24.88624405860901 26.18659210205078 24.60497510433197 C 26.39624786376953 24.50248610973358 26.342117309570312 24.13254690170288 26.080848693847656 24.12736487388611 C 26.080848693847656 24.12736487388611 22 24.12736487388611 22 24.12736487388611 C 22 24.12736487388611 22 22.00330924987793 22 22.00330924987793 C 23.36962890625 22.00330924987793 24.7392578125 21.99553620815277 26.10888671875 22.003597140312195 Z"/></g></svg>