<svg version="1.1" xmlns="http://www.w3.org/2000/svg" xmlns:xlink="http://www.w3.org/1999/xlink" width="54" height="55"><defs/><g><path fill="rgb(0,69,143)" stroke="none" paint-order="stroke fill markers" fill-rule="evenodd" d=" M 21.191932678222656 47.63558351993561 C 21.191932678222656 47.63558351993561 15.818588256835938 53.00992214679718 15.818588256835938 53.00992214679718 C 15.818588256835938 53.00992214679718 14.282905578613281 51.47489035129547 14.282905578613281 51.47489035129547 C 14.282905578613281 51.47489035129547 18.121139526367188 47.63587141036987 18.121139526367188 47.63587141036987 C 18.121139526367188 47.63587141036987 7.373420715332031 36.888633608818054 7.373420715332031 36.888633608818054 C 7.373420715332031 36.888633608818054 3.5354156494140625 40.72678887844086 3.5354156494140625 40.72678887844086 C 3.5354156494140625 40.72678887844086 1.9999618530273438 39.19118130207062 1.9999618530273438 39.19118130207062 C 1.9999618530273438 39.19118130207062 7.373420715332031 33.817994236946106 7.373420715332031 33.817994236946106 C 11.97955322265625 38.42395329475403 16.585800170898438 43.02991235256195 21.191932678222656 47.63558351993561 Z M 35.30249786376953 27.280290365219116 C 36.59980010986328 27.32865595817566 37.49003601074219 28.523977041244507 37.33622741699219 29.988475680351257 C 37.073699951171875 32.489091992378235 34.743682861328125 34.61343550682068 32.03692626953125 34.63013315200806 C 32.03692626953125 34.63013315200806 24.37384796142578 34.63013315200806 24.37384796142578 34.63013315200806 C 24.37384796142578 34.63013315200806 24.37384796142578 32.53026032447815 24.37384796142578 32.53026032447815 C 26.940872192382812 32.53026032447815 29.507781982421875 32.54580640792847 32.07469177246094 32.529972434043884 C 33.74690246582031 32.499168157577515 35.198814392089844 31.053670287132263 35.198814392089844 29.37987530231476 C 30.568077087402344 29.37987530231476 25.937454223632812 29.367496013641357 21.30683135986328 29.380163192749023 C 18.66748046875 29.40117919445038 16.06280517578125 30.354384422302246 14.060432434082031 32.04084658622742 C 14.060432434082031 32.04084658622742 8.979255676269531 36.343369126319885 8.979255676269531 36.343369126319885 C 8.979255676269531 36.343369126319885 7.5554962158203125 34.761123299598694 7.5554962158203125 34.761123299598694 C 10.090934753417969 32.61432433128357 12.467529296875 30.121768951416016 15.2855224609375 28.712257385253906 C 17.136032104492188 27.786401748657227 19.21038818359375 27.29670011997223 21.294815063476562 27.28000247478485 C 25.964004516601562 27.267335295677185 30.63353729248047 27.22443962097168 35.30249786376953 27.280290365219116 Z M 47.01747131347656 28.767532348632812 C 49.42107391357422 28.799488186836243 52.25897979736328 30.46435856819153 51.981117248535156 32.84809136390686 C 51.893455505371094 33.59948539733887 51.45960998535156 34.29704391956329 50.81874084472656 34.722545981407166 C 46.963111877441406 37.217116594314575 43.073150634765625 39.65986692905426 39.200355529785156 42.12852740287781 C 37.62690734863281 43.12174940109253 35.78063201904297 43.66989278793335 33.90071105957031 43.69493925571442 C 30.47423553466797 43.710773229599 27.047874450683594 43.6860146522522 23.62151336669922 43.69551503658295 C 21.61078643798828 43.714515805244446 19.625694274902344 44.524351596832275 18.181907653808594 45.93904519081116 C 18.181907653808594 45.93904519081116 16.646339416503906 44.41408956050873 16.646339416503906 44.41408956050873 C 18.478309631347656 42.618804812431335 21.018211364746094 41.57030785083771 23.607894897460938 41.54583716392517 C 27.032310485839844 41.536048889160156 30.45672607421875 41.56080746650696 33.88102722167969 41.54526138305664 C 35.32195281982422 41.52626061439514 36.74376678466797 41.112274169921875 37.960731506347656 40.35886490345001 C 41.85218048095703 37.90114426612854 45.72291564941406 35.4117556810379 49.60395050048828 32.93791317939758 C 50.52313995361328 32.351768255233765 47.79246520996094 30.161497831344604 45.472862243652344 31.258360385894775 C 42.54237365722656 32.68514537811279 39.58659362792969 34.00886559486389 36.202232360839844 34.02124488353729 C 36.202232360839844 34.02124488353729 35.25786590576172 34.02124488353729 35.25786590576172 34.02124488353729 C 35.25786590576172 34.02124488353729 35.25786590576172 31.871567010879517 35.25786590576172 31.871567010879517 C 37.61168670654297 31.871567010879517 39.964019775390625 31.54452347755432 42.09605407714844 30.52164876461029 C 43.64764404296875 29.76334536075592 45.133201599121094 28.818776845932007 46.83654022216797 28.768971800804138 C 46.89696502685547 28.767820239067078 46.95716094970703 28.767532348632812 47.01747131347656 28.767532348632812 Z M 16.14142608642578 47.45507621765137 C 16.14142608642578 47.45507621765137 14.625885009765625 48.969379901885986 14.625885009765625 48.969379901885986 C 14.625885009765625 48.969379901885986 13.11114501953125 47.45392465591431 13.11114501953125 47.45392465591431 C 13.11114501953125 47.45392465591431 14.626457214355469 45.93904519081116 14.626457214355469 45.93904519081116 C 15.131484985351562 46.44458079338074 15.636398315429688 46.94982850551605 16.14142608642578 47.45507621765137 Z M 40.88893127441406 31.79786705970764 C 40.88893127441406 31.79786705970764 42.90904235839844 31.79786705970764 42.90904235839844 31.79786705970764 C 42.90904235839844 31.79786705970764 42.90904235839844 16.64648139476776 42.90904235839844 16.64648139476776 C 42.90904235839844 16.64648139476776 40.88893127441406 16.64648139476776 40.88893127441406 16.64648139476776 C 40.88893127441406 16.64648139476776 40.88893127441406 31.79786705970764 40.88893127441406 31.79786705970764 Z M 16.646339416503906 28.767532348632812 C 16.646339416503906 28.767532348632812 18.66667938232422 28.767532348632812 18.66667938232422 28.767532348632812 C 18.66667938232422 28.767532348632812 18.66667938232422 16.64648139476776 18.66667938232422 16.64648139476776 C 18.66667938232422 16.64648139476776 16.646339416503906 16.64648139476776 16.646339416503906 16.64648139476776 C 16.646339416503906 16.64648139476776 16.646339416503906 28.767532348632812 16.646339416503906 28.767532348632812 Z M 44.92926788330078 15.764960885047913 C 44.92926788330078 15.764960885047913 44.19043731689453 17.65640103816986 44.19043731689453 17.65640103816986 C 44.19043731689453 17.65640103816986 24.583961486816406 17.65640103816986 24.583961486816406 17.65640103816986 C 24.583961486816406 17.65640103816986 24.583961486816406 15.47620677947998 24.583961486816406 15.47620677947998 C 24.583961486816406 15.47620677947998 41.40448760986328 15.47620677947998 41.40448760986328 15.47620677947998 C 41.40448760986328 15.47620677947998 30.03020477294922 4.967342257499695 30.03020477294922 4.967342257499695 C 30.03020477294922 4.967342257499695 18.656036376953125 15.47620677947998 18.656036376953125 15.47620677947998 C 18.656036376953125 15.47620677947998 22.40557861328125 15.47620677947998 22.40557861328125 15.47620677947998 C 22.40557861328125 15.47620677947998 22.40557861328125 17.65640103816986 22.40557861328125 17.65640103816986 C 22.40557861328125 17.65640103816986 15.870086669921875 17.65640103816986 15.870086669921875 17.65640103816986 C 15.870086669921875 17.65640103816986 15.131256103515625 15.764960885047913 15.131256103515625 15.764960885047913 C 15.131256103515625 15.764960885047913 30.03020477294922 1.9997676610946655 30.03020477294922 1.9997676610946655 C 34.996482849121094 6.58845329284668 39.96287536621094 11.176563143730164 44.92926788330078 15.764960885047913 Z M 35.333282470703125 20.75007164478302 C 35.333282470703125 20.75007164478302 35.333282470703125 28.262572526931763 35.333282470703125 28.262572526931763 C 35.333282470703125 28.262572526931763 33.11106872558594 28.262572526931763 33.11106872558594 28.262572526931763 C 33.11106872558594 28.262572526931763 33.11106872558594 21.823039293289185 33.11106872558594 21.823039293289185 C 33.11106872558594 21.823039293289185 26.444427490234375 21.823039293289185 26.444427490234375 21.823039293289185 C 26.444427490234375 21.823039293289185 26.444427490234375 28.262572526931763 26.444427490234375 28.262572526931763 C 26.444427490234375 28.262572526931763 24.222213745117188 28.262572526931763 24.222213745117188 28.262572526931763 C 24.222213745117188 28.262572526931763 24.222213745117188 20.75007164478302 24.222213745117188 20.75007164478302 C 24.222213745117188 20.75007164478302 25.33332061767578 19.67681610584259 25.33332061767578 19.67681610584259 C 25.33332061767578 19.67681610584259 34.22217559814453 19.67681610584259 34.22217559814453 19.67681610584259 C 34.592506408691406 20.03437602519989 34.96295166015625 20.39193594455719 35.333282470703125 20.75007164478302 Z"/></g></svg>